# xmcd CD database file
#
# Track frame offsets:
#	150
#	32995
#	65918
#	90868
#	120483
#	152332
#
# Disc length: 2348 seconds
#
# Revision: 0
# Processed by: cddbd v1.5.2PL0 Copyright (c) Steve Scherf et al.
# Submitted via: CDex 1.70beta2
#
DISCID=41092a06
DTITLE=ORUGA - ORUGA (2013 ALBUM)
DYEAR=2013
DGENRE=Sludge Metal
TTITLE0=NORTHERN PROMISES
TTITLE1=KISSING THE VOID
TTITLE2=MY 9/11
TTITLE3=LIKE A STONE IN THE WATER
TTITLE4=CRIMSON DAWN
TTITLE5=BLITZKRIEG LADY
EXTD=YEAR: 2013
EXTT0=
EXTT1=
EXTT2=
EXTT3=
EXTT4=
EXTT5=
PLAYORDER=
